<?xml version="1.0" standalone="no"?><!DOCTYPE svg PUBLIC "-//W3C//DTD SVG 1.1//EN" "http://www.w3.org/Graphics/SVG/1.1/DTD/svg11.dtd"><svg t="1533973810774" class="icon" style="" viewBox="0 0 1024 1024" version="1.1" xmlns="http://www.w3.org/2000/svg" p-id="10876" xmlns:xlink="http://www.w3.org/1999/xlink" width="128" height="128"><defs><style type="text/css"></style></defs><path d="M511.548421 1.083789c-19.327571 0-38.655142 1.083789-57.62145 3.431999-46.422297 5.238314-90.496384 16.79873-132.04163 33.416828 0 0 343.561122 339.76786 352.773329 352.231434V27.997883c-10.295996-3.61263-20.772623-6.502734-31.24925-9.57347C601.141648 7.22526 557.06756 1.083789 511.548421 1.083789z" fill="#FA5452" p-id="10877"></path><path d="M870.101958 148.659728C856.193332 134.751102 841.742812 122.287529 827.11166 110.185218c-36.306932-28.720409-76.045863-52.021873-117.229847-69.543129 0 0 2.528841 483.189275 0 498.181689l256.316106-256.316105c-4.696419-9.57347-9.934733-19.327571-15.53431-28.720409-21.495149-37.571353-48.228612-72.975128-80.561651-105.127536z" fill="#6467F0" p-id="10878"></path><path d="M982.996648 323.149762s-339.76786 343.561122-352.231434 352.773328h362.52743c3.61263-10.295996 6.502734-20.772623 9.57347-31.429881 11.379785-42.267772 17.521256-85.980596 17.521256-131.499736 0-19.327571-1.083789-38.655142-3.431999-57.62145-5.599577-46.602928-17.340624-90.677015-33.958723-132.222261z" fill="#5283F0" p-id="10879"></path><path d="M478.854119 713.855706L735.170224 970.171812c9.57347-4.696419 19.327571-9.934733 28.720409-15.53431 37.751984-21.675781 73.336391-48.589875 105.488799-80.742282 13.727994-13.727994 26.3722-28.359146 38.293879-42.809667 28.720409-36.306932 52.021873-75.6846 69.543129-117.229847 0.180632 0-482.828012 2.34821-498.362321 0z" fill="#00B1FE" p-id="10880"></path><path d="M347.173752 633.294055v362.52743c10.295996 3.61263 20.772623 6.502734 31.429882 9.57347 41.906509 11.199153 85.980596 17.340624 131.499735 17.340624 19.327571 0 38.655142-1.083789 57.62145-3.431998 46.422297-5.238314 90.496384-16.79873 132.04163-33.416828-0.361263-0.180632-343.38049-340.129123-352.592697-352.592698z" fill="#66D020" p-id="10881"></path><path d="M311.228083 482.105486l-256.496737 256.316105c4.696419 9.57347 9.934733 19.327571 15.534309 28.720409 21.675781 37.751984 48.589875 73.336391 80.742283 105.488799 13.727994 13.908626 28.359146 26.3722 42.990298 38.293879 36.306932 28.720409 75.6846 52.021873 117.229847 69.543129 0 0.180632-2.709473-483.008643 0-498.362321z" fill="#9AD122" p-id="10882"></path><path d="M19.327571 379.687423C7.947786 421.4133 1.806315 465.668019 1.806315 511.187158c0 19.327571 1.083789 38.655142 3.431999 57.62145 5.238314 46.422297 16.79873 90.496384 33.416828 132.04163 0 0 339.587229-343.561122 352.231434-352.231434H28.720409c-3.61263 9.934733-6.683366 20.230729-9.392838 31.068619z" fill="#FFC817" p-id="10883"></path><path d="M255.051685 70.80755c-37.751984 21.675781-73.336391 48.589875-105.488799 80.742282-13.908626 13.908626-26.3722 28.359146-38.293879 42.990299-28.720409 36.306932-52.021873 76.045863-69.543129 117.410478 0 0 483.189275-2.528841 498.723584 0l-256.496737-256.316106c-9.57347 4.515788-19.327571 10.115364-28.90104 15.173047z" fill="#FF7612" p-id="10884"></path></svg>